<?xml version="1.0" encoding="iso-8859-1"?>
<!-- Generator: Adobe Illustrator 19.0.0, SVG Export Plug-In . SVG Version: 6.00 Build 0)  -->
<svg version="1.1" id="Capa_1" xmlns="http://www.w3.org/2000/svg" xmlns:xlink="http://www.w3.org/1999/xlink" x="0px" y="0px"
	 viewBox="0 0 512 512" style="enable-background:new 0 0 512 512;" xml:space="preserve">
<circle style="fill:#00ABE9;" cx="256" cy="256" r="256"/>
<path style="fill:#0080AF;" d="M472.576,392.529L365.124,285.077l-79.826,80.496l107.091,107.091
	C424.718,452.27,452.161,424.844,472.576,392.529z"/>
<polygon style="fill:#444444;" points="382.498,354.595 394,394 354.367,382.726 350.25,364.201 367.746,346.706 "/>
<polygon style="fill:#5A5A5A;" points="367.746,346.706 382.498,354.595 394,394 357.111,357.34 "/>
<path style="fill:#FFC473;" d="M365.459,285.412c1.882,8.542,14.478,58.744,17.039,69.183l-28.131,28.131
	c-21.737-5.331-63.007-15.739-69.069-17.153l1.144-15.552l31.675-31.675l35.792-36.021L365.459,285.412z"/>
<polygon style="fill:#FF9F00;" points="358.14,278.093 365.459,285.412 285.298,365.573 163.741,244.017 163.627,221.261 
	223.319,161.568 243.788,163.97 "/>
<path style="fill:#FFD396;" d="M353.909,282.324l11.55,3.088c1.882,8.542,14.478,58.744,17.039,69.183l-14.066,14.066
	l-50.315-50.315L353.909,282.324z"/>
<polygon style="fill:#FDBF00;" points="358.14,278.093 365.459,285.412 325.321,325.55 192.329,192.558 223.319,161.568 
	243.788,163.97 "/>
<path style="fill:#444444;" d="M158.023,158.252L118,198.276l45.741,45.741l80.047-80.047L198.047,118L158.023,158.252z"/>
<polygon style="fill:#5A5A5A;" points="243.788,163.97 203.764,203.993 158.023,158.252 198.047,118 "/>
<g>
</g>
<g>
</g>
<g>
</g>
<g>
</g>
<g>
</g>
<g>
</g>
<g>
</g>
<g>
</g>
<g>
</g>
<g>
</g>
<g>
</g>
<g>
</g>
<g>
</g>
<g>
</g>
<g>
</g>
</svg>
